<svg width="123" height="118" viewBox="0 0 123 118" fill="none" xmlns="http://www.w3.org/2000/svg">
<path d="M7.79325 91.248C9.55325 91.248 11.0973 91.592 12.4253 92.28C13.7693 92.968 14.8013 93.952 15.5213 95.232C16.2573 96.496 16.6253 97.968 16.6253 99.648C16.6253 101.328 16.2573 102.8 15.5213 104.064C14.8013 105.312 13.7693 106.28 12.4253 106.968C11.0973 107.656 9.55325 108 7.79325 108H1.93725V91.248H7.79325ZM7.67325 105.144C9.43325 105.144 10.7933 104.664 11.7533 103.704C12.7133 102.744 13.1933 101.392 13.1933 99.648C13.1933 97.904 12.7133 96.544 11.7533 95.568C10.7933 94.576 9.43325 94.08 7.67325 94.08H5.29725V105.144H7.67325ZM25.0444 108.216C23.7644 108.216 22.6124 107.936 21.5884 107.376C20.5644 106.8 19.7564 105.992 19.1644 104.952C18.5884 103.912 18.3004 102.712 18.3004 101.352C18.3004 99.992 18.5964 98.792 19.1884 97.752C19.7964 96.712 20.6204 95.912 21.6604 95.352C22.7004 94.776 23.8604 94.488 25.1404 94.488C26.4204 94.488 27.5804 94.776 28.6204 95.352C29.6604 95.912 30.4764 96.712 31.0684 97.752C31.6764 98.792 31.9804 99.992 31.9804 101.352C31.9804 102.712 31.6684 103.912 31.0444 104.952C30.4364 105.992 29.6044 106.8 28.5484 107.376C27.5084 107.936 26.3404 108.216 25.0444 108.216ZM25.0444 105.288C25.6524 105.288 26.2204 105.144 26.7484 104.856C27.2924 104.552 27.7244 104.104 28.0444 103.512C28.3644 102.92 28.5244 102.2 28.5244 101.352C28.5244 100.088 28.1884 99.12 27.5164 98.448C26.8604 97.76 26.0524 97.416 25.0924 97.416C24.1324 97.416 23.3244 97.76 22.6684 98.448C22.0284 99.12 21.7084 100.088 21.7084 101.352C21.7084 102.616 22.0204 103.592 22.6444 104.28C23.2844 104.952 24.0844 105.288 25.0444 105.288ZM50.9571 94.512C52.5891 94.512 53.9011 95.016 54.8931 96.024C55.9011 97.016 56.4051 98.408 56.4051 100.2V108H53.0451V100.656C53.0451 99.616 52.7811 98.824 52.2531 98.28C51.7251 97.72 51.0051 97.44 50.0931 97.44C49.1811 97.44 48.4531 97.72 47.9091 98.28C47.3811 98.824 47.1171 99.616 47.1171 100.656V108H43.7571V100.656C43.7571 99.616 43.4931 98.824 42.9651 98.28C42.4371 97.72 41.7171 97.44 40.8051 97.44C39.8771 97.44 39.1411 97.72 38.5971 98.28C38.0691 98.824 37.8051 99.616 37.8051 100.656V108H34.4451V94.704H37.8051V96.312C38.2371 95.752 38.7891 95.312 39.4611 94.992C40.1491 94.672 40.9011 94.512 41.7171 94.512C42.7571 94.512 43.6851 94.736 44.5011 95.184C45.3171 95.616 45.9491 96.24 46.3971 97.056C46.8291 96.288 47.4531 95.672 48.2691 95.208C49.1011 94.744 49.9971 94.512 50.9571 94.512ZM72.1455 94.704V108H68.7615V106.32C68.3295 106.896 67.7615 107.352 67.0575 107.688C66.3695 108.008 65.6175 108.168 64.8015 108.168C63.7615 108.168 62.8415 107.952 62.0415 107.52C61.2415 107.072 60.6095 106.424 60.1455 105.576C59.6975 104.712 59.4735 103.688 59.4735 102.504V94.704H62.8335V102.024C62.8335 103.08 63.0975 103.896 63.6255 104.472C64.1535 105.032 64.8735 105.312 65.7855 105.312C66.7135 105.312 67.4415 105.032 67.9695 104.472C68.4975 103.896 68.7615 103.08 68.7615 102.024V94.704H72.1455ZM80.5487 108.216C79.4607 108.216 78.4847 108.024 77.6207 107.64C76.7567 107.24 76.0687 106.704 75.5567 106.032C75.0607 105.36 74.7887 104.616 74.7407 103.8H78.1247C78.1887 104.312 78.4367 104.736 78.8687 105.072C79.3167 105.408 79.8687 105.576 80.5247 105.576C81.1647 105.576 81.6607 105.448 82.0127 105.192C82.3807 104.936 82.5647 104.608 82.5647 104.208C82.5647 103.776 82.3407 103.456 81.8927 103.248C81.4607 103.024 80.7647 102.784 79.8047 102.528C78.8127 102.288 77.9967 102.04 77.3567 101.784C76.7327 101.528 76.1887 101.136 75.7247 100.608C75.2767 100.08 75.0527 99.368 75.0527 98.472C75.0527 97.736 75.2607 97.064 75.6767 96.456C76.1087 95.848 76.7167 95.368 77.5007 95.016C78.3007 94.664 79.2367 94.488 80.3087 94.488C81.8927 94.488 83.1567 94.888 84.1007 95.688C85.0447 96.472 85.5647 97.536 85.6607 98.88H82.4447C82.3967 98.352 82.1727 97.936 81.7727 97.632C81.3887 97.312 80.8687 97.152 80.2127 97.152C79.6047 97.152 79.1327 97.264 78.7967 97.488C78.4767 97.712 78.3167 98.024 78.3167 98.424C78.3167 98.872 78.5407 99.216 78.9887 99.456C79.4367 99.68 80.1327 99.912 81.0767 100.152C82.0367 100.392 82.8287 100.64 83.4527 100.896C84.0767 101.152 84.6127 101.552 85.0607 102.096C85.5247 102.624 85.7647 103.328 85.7807 104.208C85.7807 104.976 85.5647 105.664 85.1327 106.272C84.7167 106.88 84.1087 107.36 83.3087 107.712C82.5247 108.048 81.6047 108.216 80.5487 108.216ZM91.8988 91.248V108H88.5388V91.248H91.8988ZM101.123 108.216C99.8425 108.216 98.6905 107.936 97.6665 107.376C96.6425 106.8 95.8345 105.992 95.2425 104.952C94.6665 103.912 94.3785 102.712 94.3785 101.352C94.3785 99.992 94.6745 98.792 95.2665 97.752C95.8745 96.712 96.6985 95.912 97.7385 95.352C98.7785 94.776 99.9385 94.488 101.219 94.488C102.499 94.488 103.659 94.776 104.699 95.352C105.739 95.912 106.555 96.712 107.147 97.752C107.755 98.792 108.059 99.992 108.059 101.352C108.059 102.712 107.747 103.912 107.122 104.952C106.515 105.992 105.683 106.8 104.627 107.376C103.587 107.936 102.419 108.216 101.123 108.216ZM101.123 105.288C101.731 105.288 102.299 105.144 102.827 104.856C103.371 104.552 103.803 104.104 104.123 103.512C104.443 102.92 104.603 102.2 104.603 101.352C104.603 100.088 104.267 99.12 103.595 98.448C102.939 97.76 102.131 97.416 101.171 97.416C100.211 97.416 99.4025 97.76 98.7465 98.448C98.1065 99.12 97.7865 100.088 97.7865 101.352C97.7865 102.616 98.0985 103.592 98.7225 104.28C99.3625 104.952 100.163 105.288 101.123 105.288ZM121.923 91.248V93.96H117.459V108H114.099V93.96H109.635V91.248H121.923Z" fill="#337DE0"/>
<path d="M54.2422 10.0184C59.7969 4.49245 66.8516 1.09729 74.8906 0.0904465C77 -0.167114 83.7266 0.16069 85.9531 0.62899C95.4688 2.66608 103.906 8.70714 108.758 16.9258C110.844 20.4146 112.18 23.9034 112.203 25.7298C112.203 28.563 110.305 30.4596 107.445 30.4596C105.078 30.4596 103.391 29.0313 102.547 26.2917C101.984 24.4654 99.9688 20.8829 98.4453 18.9863C95.0469 14.7482 90.4297 11.7745 85.0156 10.3228C82.9766 9.7608 82.3203 9.69056 78.7578 9.69056C75.1953 9.69056 74.5391 9.7608 72.5 10.3228C66.4766 11.9384 61.0625 15.755 57.7344 20.7892C55.6484 23.9268 54.7344 24.6059 52.625 24.6059C51.6406 24.6059 50.8672 24.4185 49.4609 23.7629C46.3438 22.3814 44.9609 22.1005 41.2578 22.077C37.3672 22.077 35.4688 22.5219 32.2578 24.1844C28.5547 26.1278 25.6719 29.0547 23.7969 32.8479C22.2969 35.8918 21.9219 37.367 21.7578 40.9495C21.6406 43.4314 21.7109 44.2744 22.1328 46.4051C22.6953 49.1681 22.6484 49.8705 21.7812 51.3691C21.1484 52.493 20.4688 52.9847 18.6875 53.5935C16.7891 54.2491 15.6172 54.9984 14.2344 56.4735C12.4766 58.3233 11.7734 59.9624 11.6562 62.5146C11.5625 64.2005 11.6328 64.8092 12.0781 66.0502C13.0625 68.8132 15.1719 71.0142 17.8672 72.1147L19.2266 72.6532H62H104.773L106.133 72.1147C109.953 70.5693 112.344 67.0805 112.367 63.0297C112.414 58.9789 110.305 55.7008 106.531 53.9916C104.422 53.0081 103.789 52.5164 103.227 51.4159C102.078 49.1447 102.875 46.2646 105.031 45.0002C105.945 44.4617 106.273 44.3914 107.656 44.4851C112.273 44.7427 118.273 49.8237 120.57 55.3964C121.602 57.8784 122 60.0092 122 62.9829C122 68.4854 120.148 72.9342 116.305 76.7274C114.43 78.5772 113.281 79.3733 110.867 80.4972C108.078 81.8085 106.438 82.1597 102.383 82.3002H21.6406C17.5625 82.1597 15.9219 81.8085 13.1328 80.4972C10.7188 79.3733 9.57031 78.5772 7.69531 76.7274C3.82812 72.9108 2 68.4854 2 62.9126C2 56.2862 5.21094 50.3388 10.6484 46.8032L12.1016 45.8666L12.1719 41.5817C12.2656 35.9387 12.9922 32.7308 15.1719 28.3991C18.6641 21.4448 25.1094 15.9658 32.4219 13.6711C37.625 12.032 43.5547 11.915 48.9453 13.3433L50.75 13.8116L51.2656 13.156C51.5234 12.7813 52.8828 11.3764 54.2422 10.0184Z" fill="#337DE0"/>
<path d="M59.7735 33.1054C55.2032 33.7376 53.0235 34.323 50.1641 35.6811C46.5547 37.367 42.5235 40.528 41.5625 42.4012C40.8829 43.7592 41.0469 45.9134 41.9141 47.1778C42.6172 48.2081 43.8594 48.9808 45.1719 49.2149C46.6954 49.4959 47.9375 48.9808 50.0469 47.248C53.8672 44.087 57.4532 42.7056 62 42.7056C66.5469 42.7056 70.1329 44.087 73.9532 47.248C76.0625 48.9808 77.3047 49.4959 78.8282 49.2149C81.0782 48.8168 82.625 47.1778 82.8125 45.0002C82.9766 43.1036 82.4375 41.9329 80.5625 40.2002C77.0469 36.8987 72.2188 34.4869 67.3438 33.5503C65.4454 33.1991 61.0157 32.9181 59.7735 33.1054Z" fill="#337DE0"/>
<path d="M60.336 50.7837C58.1329 51.0179 56.1407 51.9076 54.0782 53.5467C51.5704 55.5604 51.2891 58.815 53.4454 60.9692C54.2188 61.7419 54.711 61.9995 55.6954 62.2102C57.336 62.538 58.4375 62.2804 60.0547 61.1565C61.6719 60.056 62.3282 60.056 63.9454 61.1565C65.5625 62.2804 66.6641 62.538 68.3047 62.2102C70.8125 61.6951 72.5469 58.9321 71.8672 56.497C71.4688 54.9984 70.8125 54.1555 69.1485 52.9847C66.5469 51.1349 63.7813 50.4325 60.336 50.7837Z" fill="#337DE0"/>
</svg>
